<?xml version="1.0" encoding="UTF-8" standalone="no"?>
<!-- Created with Inkscape (http://www.inkscape.org/) -->

<svg
   xmlns:dc="http://purl.org/dc/elements/1.1/"
   xmlns:cc="http://creativecommons.org/ns#"
   xmlns:rdf="http://www.w3.org/1999/02/22-rdf-syntax-ns#"
   xmlns:svg="http://www.w3.org/2000/svg"
   xmlns="http://www.w3.org/2000/svg"
   xmlns:sodipodi="http://sodipodi.sourceforge.net/DTD/sodipodi-0.dtd"
   xmlns:inkscape="http://www.inkscape.org/namespaces/inkscape"
   width="210mm"
   height="297mm"
   viewBox="0 0 210 297"
   version="1.1"
   id="svg8"
   inkscape:version="0.92.3 (2405546, 2018-03-11)"
   sodipodi:docname="grid.svg">
  <defs
     id="defs2" />
  <sodipodi:namedview
     id="base"
     pagecolor="#ffffff"
     bordercolor="#666666"
     borderopacity="1.0"
     inkscape:pageopacity="0.0"
     inkscape:pageshadow="2"
     inkscape:zoom="2.8"
     inkscape:cx="143.2102"
     inkscape:cy="905.08366"
     inkscape:document-units="mm"
     inkscape:current-layer="layer1"
     showgrid="true"
     inkscape:pagecheckerboard="false"
     inkscape:snap-grids="true"
     inkscape:window-width="1853"
     inkscape:window-height="1025"
     inkscape:window-x="67"
     inkscape:window-y="27"
     inkscape:window-maximized="1">
    <inkscape:grid
       type="axonomgrid"
       id="grid815"
       units="mm"
       empspacing="2"
       enabled="true"
       visible="true" />
  </sodipodi:namedview>
  <metadata
     id="metadata5">
    <rdf:RDF>
      <cc:Work
         rdf:about="">
        <dc:format>image/svg+xml</dc:format>
        <dc:type
           rdf:resource="http://purl.org/dc/dcmitype/StillImage" />
        <dc:title></dc:title>
      </cc:Work>
    </rdf:RDF>
  </metadata>
  <g
     inkscape:label="Layer 1"
     inkscape:groupmode="layer"
     id="layer1">
    <g
       id="g5091"
       style="fill:#000000">
      <path
         sodipodi:nodetypes="ccccccc"
         inkscape:connector-curvature="0"
         id="path4524"
         d="m 20.78461,13 3.464101,-2 3.464102,2 v 4 l -3.464102,2 -3.464101,-2 z"
         style="fill:#000000;stroke:#808080;stroke-width:0.26458332px;stroke-linecap:butt;stroke-linejoin:miter;stroke-opacity:1" />
      <path
         sodipodi:nodetypes="ccccccc"
         inkscape:connector-curvature="0"
         id="path4524-3"
         d="m 27.712813,13 3.464101,-2 3.464102,2 v 4 l -3.464102,2 -3.464101,-2 z"
         style="fill:#000000;stroke:#808080;stroke-width:0.26458332px;stroke-linecap:butt;stroke-linejoin:miter;stroke-opacity:1" />
      <path
         sodipodi:nodetypes="ccccccc"
         inkscape:connector-curvature="0"
         id="path4524-6"
         d="m 17.320509,19 3.464101,-2 3.464102,2 v 4 l -3.464102,2 -3.464101,-2 z"
         style="fill:#000000;stroke:#808080;stroke-width:0.26458332px;stroke-linecap:butt;stroke-linejoin:miter;stroke-opacity:1" />
      <path
         sodipodi:nodetypes="ccccccc"
         inkscape:connector-curvature="0"
         id="path4524-3-7"
         d="m 24.248712,19 3.464101,-2 3.464102,2 v 4 l -3.464102,2 -3.464101,-2 z"
         style="fill:#000000;stroke:#808080;stroke-width:0.26458332px;stroke-linecap:butt;stroke-linejoin:miter;stroke-opacity:1" />
      <path
         sodipodi:nodetypes="ccccccc"
         inkscape:connector-curvature="0"
         id="path4524-5"
         d="M 34.641016,13.000002 38.105118,11 41.56922,13.000002 v 4.000002 l -3.464102,2.000001 -3.464102,-2.000001 z"
         style="fill:#000000;stroke:#808080;stroke-width:0.26458332px;stroke-linecap:butt;stroke-linejoin:miter;stroke-opacity:1" />
      <path
         sodipodi:nodetypes="ccccccc"
         inkscape:connector-curvature="0"
         id="path4524-3-3"
         d="M 41.56922,13.000002 45.033321,11 l 3.464102,2.000002 v 4.000002 l -3.464102,2.000001 -3.464101,-2.000001 z"
         style="fill:#000000;stroke:#808080;stroke-width:0.26458332px;stroke-linecap:butt;stroke-linejoin:miter;stroke-opacity:1" />
      <path
         sodipodi:nodetypes="ccccccc"
         inkscape:connector-curvature="0"
         id="path4524-6-5"
         d="m 31.176913,19.000005 3.464103,-2.000001 3.464103,2.000001 v 4 l -3.464103,2 -3.464103,-2 z"
         style="fill:#000000;stroke:#808080;stroke-width:0.26458332px;stroke-linecap:butt;stroke-linejoin:miter;stroke-opacity:1" />
      <path
         sodipodi:nodetypes="ccccccc"
         inkscape:connector-curvature="0"
         id="path4524-3-7-6"
         d="m 38.105119,19.000005 3.464101,-2.000001 3.464102,2.000001 v 4 l -3.464102,2 -3.464101,-2 z"
         style="fill:#000000;stroke:#808080;stroke-width:0.26458332px;stroke-linecap:butt;stroke-linejoin:miter;stroke-opacity:1" />
      <path
         sodipodi:nodetypes="ccccccc"
         inkscape:connector-curvature="0"
         id="path4524-2"
         d="m 48.497423,13 3.464101,-2 3.464102,2 v 4 l -3.464102,2 -3.464101,-2 z"
         style="fill:#000000;stroke:#808080;stroke-width:0.26458332px;stroke-linecap:butt;stroke-linejoin:miter;stroke-opacity:1" />
      <path
         sodipodi:nodetypes="ccccccc"
         inkscape:connector-curvature="0"
         id="path4524-3-9"
         d="m 55.425626,13 3.464101,-2 3.464102,2 v 4 l -3.464102,2 -3.464101,-2 z"
         style="fill:#000000;stroke:#808080;stroke-width:0.26458332px;stroke-linecap:butt;stroke-linejoin:miter;stroke-opacity:1" />
      <path
         sodipodi:nodetypes="ccccccc"
         inkscape:connector-curvature="0"
         id="path4524-6-1"
         d="m 45.033322,19 3.464101,-2 3.464102,2 v 3.999999 l -3.464102,2 -3.464101,-2 z"
         style="fill:#000000;stroke:#808080;stroke-width:0.26458332px;stroke-linecap:butt;stroke-linejoin:miter;stroke-opacity:1" />
      <path
         sodipodi:nodetypes="ccccccc"
         inkscape:connector-curvature="0"
         id="path4524-3-7-2"
         d="m 51.961525,19 3.464101,-2 3.464102,2 v 3.999999 l -3.464102,2 -3.464101,-2 z"
         style="fill:#000000;stroke:#808080;stroke-width:0.26458332px;stroke-linecap:butt;stroke-linejoin:miter;stroke-opacity:1" />
      <path
         sodipodi:nodetypes="ccccccc"
         inkscape:connector-curvature="0"
         id="path4524-7"
         d="m 20.78461,25 3.464101,-2 3.464102,2 v 4 l -3.464102,2 -3.464101,-2 z"
         style="fill:#000000;stroke:#808080;stroke-width:0.26458332px;stroke-linecap:butt;stroke-linejoin:miter;stroke-opacity:1" />
      <path
         sodipodi:nodetypes="ccccccc"
         inkscape:connector-curvature="0"
         id="path4524-3-0"
         d="m 27.712813,25 3.464101,-2 3.464102,2 v 4 l -3.464102,2 -3.464101,-2 z"
         style="fill:#000000;stroke:#808080;stroke-width:0.26458332px;stroke-linecap:butt;stroke-linejoin:miter;stroke-opacity:1" />
      <path
         sodipodi:nodetypes="ccccccc"
         inkscape:connector-curvature="0"
         id="path4524-6-9"
         d="m 17.320509,31 3.464101,-2 3.464102,2 v 3.999999 l -3.464102,2 -3.464101,-2 z"
         style="fill:#000000;stroke:#808080;stroke-width:0.26458332px;stroke-linecap:butt;stroke-linejoin:miter;stroke-opacity:1" />
      <path
         sodipodi:nodetypes="ccccccc"
         inkscape:connector-curvature="0"
         id="path4524-3-7-3"
         d="m 24.248712,31 3.464101,-2 3.464102,2 v 3.999999 l -3.464102,2 -3.464101,-2 z"
         style="fill:#000000;stroke:#808080;stroke-width:0.26458332px;stroke-linecap:butt;stroke-linejoin:miter;stroke-opacity:1" />
      <path
         sodipodi:nodetypes="ccccccc"
         inkscape:connector-curvature="0"
         id="path4524-60"
         d="m 34.641016,25.000001 3.464101,-2 3.464102,2 v 4 l -3.464102,2 -3.464101,-2 z"
         style="fill:#000000;stroke:#808080;stroke-width:0.26458332px;stroke-linecap:butt;stroke-linejoin:miter;stroke-opacity:1" />
      <path
         sodipodi:nodetypes="ccccccc"
         inkscape:connector-curvature="0"
         id="path4524-3-6"
         d="m 41.569219,25.000001 3.464101,-2 3.464102,2 v 4 l -3.464102,2 -3.464101,-2 z"
         style="fill:#000000;stroke:#808080;stroke-width:0.26458332px;stroke-linecap:butt;stroke-linejoin:miter;stroke-opacity:1" />
      <path
         sodipodi:nodetypes="ccccccc"
         inkscape:connector-curvature="0"
         id="path4524-6-2"
         d="m 31.176915,31.000001 3.464101,-2 3.464102,2 V 35 l -3.464102,2 -3.464101,-2 z"
         style="fill:#000000;stroke:#808080;stroke-width:0.26458332px;stroke-linecap:butt;stroke-linejoin:miter;stroke-opacity:1" />
      <path
         sodipodi:nodetypes="ccccccc"
         inkscape:connector-curvature="0"
         id="path4524-3-7-61"
         d="m 38.105118,31.000001 3.464101,-2 3.464102,2 V 35 l -3.464102,2 -3.464101,-2 z"
         style="fill:#000000;stroke:#808080;stroke-width:0.26458332px;stroke-linecap:butt;stroke-linejoin:miter;stroke-opacity:1" />
      <path
         sodipodi:nodetypes="ccccccc"
         inkscape:connector-curvature="0"
         id="path4524-8"
         d="m 48.497422,25.000001 3.464101,-2 3.464102,2 v 4 l -3.464102,2 -3.464101,-2 z"
         style="fill:#000000;stroke:#808080;stroke-width:0.26458332px;stroke-linecap:butt;stroke-linejoin:miter;stroke-opacity:1" />
      <path
         sodipodi:nodetypes="ccccccc"
         inkscape:connector-curvature="0"
         id="path4524-3-79"
         d="m 55.425625,25.000001 3.464101,-2 3.464102,2 v 4 l -3.464102,2 -3.464101,-2 z"
         style="fill:#000000;stroke:#808080;stroke-width:0.26458332px;stroke-linecap:butt;stroke-linejoin:miter;stroke-opacity:1" />
      <path
         sodipodi:nodetypes="ccccccc"
         inkscape:connector-curvature="0"
         id="path4524-6-20"
         d="m 45.033321,31.000001 3.464101,-2 3.464102,2 V 35 l -3.464102,2 -3.464101,-2 z"
         style="fill:#000000;stroke:#808080;stroke-width:0.26458332px;stroke-linecap:butt;stroke-linejoin:miter;stroke-opacity:1" />
      <path
         sodipodi:nodetypes="ccccccc"
         inkscape:connector-curvature="0"
         id="path4524-3-7-23"
         d="m 51.961524,31.000001 3.464101,-2 3.464102,2 V 35 l -3.464102,2 -3.464101,-2 z"
         style="fill:#000000;stroke:#808080;stroke-width:0.26458332px;stroke-linecap:butt;stroke-linejoin:miter;stroke-opacity:1" />
      <path
         sodipodi:nodetypes="ccccccc"
         inkscape:connector-curvature="0"
         id="path4524-75"
         d="m 62.35383,12.999999 3.464101,-2 3.464102,2 V 17 l -3.464102,2 -3.464101,-2 z"
         style="fill:#000000;stroke:#808080;stroke-width:0.26458332px;stroke-linecap:butt;stroke-linejoin:miter;stroke-opacity:1" />
      <path
         sodipodi:nodetypes="ccccccc"
         inkscape:connector-curvature="0"
         id="path4524-3-92"
         d="m 69.282033,12.999999 3.464101,-2 3.464102,2 V 17 l -3.464102,2 -3.464101,-2 z"
         style="fill:#000000;stroke:#808080;stroke-width:0.26458332px;stroke-linecap:butt;stroke-linejoin:miter;stroke-opacity:1" />
      <path
         sodipodi:nodetypes="ccccccc"
         inkscape:connector-curvature="0"
         id="path4524-6-28"
         d="m 58.889729,19 3.464101,-2 3.464102,2 v 4 L 62.35383,24.999999 58.889729,23 Z"
         style="fill:#000000;stroke:#808080;stroke-width:0.26458332px;stroke-linecap:butt;stroke-linejoin:miter;stroke-opacity:1" />
      <path
         sodipodi:nodetypes="ccccccc"
         inkscape:connector-curvature="0"
         id="path4524-3-7-9"
         d="m 65.817932,19 3.464101,-2 3.464102,2 v 4 L 69.282033,24.999999 65.817932,23 Z"
         style="fill:#000000;stroke:#808080;stroke-width:0.26458332px;stroke-linecap:butt;stroke-linejoin:miter;stroke-opacity:1" />
      <path
         sodipodi:nodetypes="ccccccc"
         inkscape:connector-curvature="0"
         id="path4524-5-7"
         d="m 76.210236,13.000001 3.464102,-2.000002 3.464102,2.000002 v 4.000003 l -3.464102,2.000001 -3.464102,-2.000001 z"
         style="fill:#000000;stroke:#808080;stroke-width:0.26458332px;stroke-linecap:butt;stroke-linejoin:miter;stroke-opacity:1" />
      <path
         sodipodi:nodetypes="ccccccc"
         inkscape:connector-curvature="0"
         id="path4524-3-3-3"
         d="m 83.13844,13.000001 3.464102,-2.000002 3.464102,2.000002 v 4.000003 l -3.464102,2.000001 -3.464102,-2.000001 z"
         style="fill:#000000;stroke:#808080;stroke-width:0.26458332px;stroke-linecap:butt;stroke-linejoin:miter;stroke-opacity:1" />
      <path
         sodipodi:nodetypes="ccccccc"
         inkscape:connector-curvature="0"
         id="path4524-6-5-6"
         d="m 72.746133,19.000005 3.464103,-2.000001 3.464103,2.000001 v 3.999999 l -3.464103,2.000001 -3.464103,-2.000001 z"
         style="fill:#000000;stroke:#808080;stroke-width:0.26458332px;stroke-linecap:butt;stroke-linejoin:miter;stroke-opacity:1" />
      <path
         sodipodi:nodetypes="ccccccc"
         inkscape:connector-curvature="0"
         id="path4524-3-7-6-1"
         d="m 79.674339,19.000005 3.464101,-2.000001 3.464102,2.000001 v 3.999999 l -3.464102,2.000001 -3.464101,-2.000001 z"
         style="fill:#000000;stroke:#808080;stroke-width:0.26458332px;stroke-linecap:butt;stroke-linejoin:miter;stroke-opacity:1" />
      <path
         sodipodi:nodetypes="ccccccc"
         inkscape:connector-curvature="0"
         id="path4524-2-2"
         d="m 90.066644,12.999999 3.464099,-2 3.464103,2 V 17 l -3.464103,2 -3.464099,-2 z"
         style="fill:#000000;stroke:#808080;stroke-width:0.26458332px;stroke-linecap:butt;stroke-linejoin:miter;stroke-opacity:1" />
      <path
         sodipodi:nodetypes="ccccccc"
         inkscape:connector-curvature="0"
         id="path4524-3-9-9"
         d="m 96.994846,12.999999 3.464104,-2 3.4641,2 V 17 l -3.4641,2 -3.464104,-2 z"
         style="fill:#000000;stroke:#808080;stroke-width:0.26458332px;stroke-linecap:butt;stroke-linejoin:miter;stroke-opacity:1" />
      <path
         sodipodi:nodetypes="ccccccc"
         inkscape:connector-curvature="0"
         id="path4524-6-1-3"
         d="m 86.602542,19 3.464102,-2 3.464102,2 v 3.999998 l -3.464102,2 -3.464102,-2 z"
         style="fill:#000000;stroke:#808080;stroke-width:0.26458332px;stroke-linecap:butt;stroke-linejoin:miter;stroke-opacity:1" />
      <path
         sodipodi:nodetypes="ccccccc"
         inkscape:connector-curvature="0"
         id="path4524-3-7-2-1"
         d="m 93.530746,19 3.4641,-2 3.464104,2 v 3.999998 l -3.464104,2 -3.4641,-2 z"
         style="fill:#000000;stroke:#808080;stroke-width:0.26458332px;stroke-linecap:butt;stroke-linejoin:miter;stroke-opacity:1" />
      <path
         sodipodi:nodetypes="ccccccc"
         inkscape:connector-curvature="0"
         id="path4524-7-9"
         d="M 62.35383,24.999999 65.817931,23 l 3.464102,1.999999 v 4 l -3.464102,2 -3.464101,-2 z"
         style="fill:#000000;stroke:#808080;stroke-width:0.26458332px;stroke-linecap:butt;stroke-linejoin:miter;stroke-opacity:1" />
      <path
         sodipodi:nodetypes="ccccccc"
         inkscape:connector-curvature="0"
         id="path4524-3-0-4"
         d="M 69.282033,24.999999 72.746134,23 l 3.464102,1.999999 v 4 l -3.464102,2 -3.464101,-2 z"
         style="fill:#000000;stroke:#808080;stroke-width:0.26458332px;stroke-linecap:butt;stroke-linejoin:miter;stroke-opacity:1" />
      <path
         sodipodi:nodetypes="ccccccc"
         inkscape:connector-curvature="0"
         id="path4524-6-9-7"
         d="m 58.889729,30.999999 3.464101,-2 3.464102,2 v 4 l -3.464102,2 -3.464101,-2 z"
         style="fill:#000000;stroke:#808080;stroke-width:0.26458332px;stroke-linecap:butt;stroke-linejoin:miter;stroke-opacity:1" />
      <path
         sodipodi:nodetypes="ccccccc"
         inkscape:connector-curvature="0"
         id="path4524-3-7-3-8"
         d="m 65.817932,30.999999 3.464101,-2 3.464102,2 v 4 l -3.464102,2 -3.464101,-2 z"
         style="fill:#000000;stroke:#808080;stroke-width:0.26458332px;stroke-linecap:butt;stroke-linejoin:miter;stroke-opacity:1" />
      <path
         sodipodi:nodetypes="ccccccc"
         inkscape:connector-curvature="0"
         id="path4524-60-4"
         d="M 76.210236,25.000001 79.674337,23 83.138439,25.000001 V 29 l -3.464102,2 -3.464101,-2 z"
         style="fill:#000000;stroke:#808080;stroke-width:0.26458332px;stroke-linecap:butt;stroke-linejoin:miter;stroke-opacity:1" />
      <path
         sodipodi:nodetypes="ccccccc"
         inkscape:connector-curvature="0"
         id="path4524-3-6-5"
         d="M 83.138439,25.000001 86.602539,23 90.066641,25.000001 V 29 l -3.464102,2 -3.4641,-2 z"
         style="fill:#000000;stroke:#808080;stroke-width:0.26458332px;stroke-linecap:butt;stroke-linejoin:miter;stroke-opacity:1" />
      <path
         sodipodi:nodetypes="ccccccc"
         inkscape:connector-curvature="0"
         id="path4524-6-2-0"
         d="m 72.746135,31 3.464101,-2 3.464102,2 v 4 l -3.464102,2 -3.464101,-2 z"
         style="fill:#000000;stroke:#808080;stroke-width:0.26458332px;stroke-linecap:butt;stroke-linejoin:miter;stroke-opacity:1" />
      <path
         sodipodi:nodetypes="ccccccc"
         inkscape:connector-curvature="0"
         id="path4524-3-7-61-3"
         d="m 79.674338,31 3.464101,-2 3.464103,2 v 4 l -3.464103,2 -3.464101,-2 z"
         style="fill:#000000;stroke:#808080;stroke-width:0.26458332px;stroke-linecap:butt;stroke-linejoin:miter;stroke-opacity:1" />
      <path
         sodipodi:nodetypes="ccccccc"
         inkscape:connector-curvature="0"
         id="path4524-8-6"
         d="M 90.066641,25.000001 93.530743,23 96.994846,25.000001 V 29 l -3.464103,2 -3.464102,-2 z"
         style="fill:#000000;stroke:#808080;stroke-width:0.26458332px;stroke-linecap:butt;stroke-linejoin:miter;stroke-opacity:1" />
      <path
         sodipodi:nodetypes="ccccccc"
         inkscape:connector-curvature="0"
         id="path4524-3-79-1"
         d="M 96.994846,25.000001 100.45894,23 l 3.46411,2.000001 V 29 l -3.46411,2 -3.464094,-2 z"
         style="fill:#000000;stroke:#808080;stroke-width:0.26458332px;stroke-linecap:butt;stroke-linejoin:miter;stroke-opacity:1" />
      <path
         sodipodi:nodetypes="ccccccc"
         inkscape:connector-curvature="0"
         id="path4524-6-20-0"
         d="m 86.602542,31 3.464099,-2 3.464102,2 v 4 l -3.464102,2 -3.464099,-2 z"
         style="fill:#000000;stroke:#808080;stroke-width:0.26458332px;stroke-linecap:butt;stroke-linejoin:miter;stroke-opacity:1" />
      <path
         sodipodi:nodetypes="ccccccc"
         inkscape:connector-curvature="0"
         id="path4524-3-7-23-6"
         d="m 93.530743,31 3.464103,-2 3.464104,2 v 4 l -3.464104,2 -3.464103,-2 z"
         style="fill:#000000;stroke:#808080;stroke-width:0.26458332px;stroke-linecap:butt;stroke-linejoin:miter;stroke-opacity:1" />
      <path
         sodipodi:nodetypes="ccccccc"
         inkscape:connector-curvature="0"
         id="path4524-32"
         d="m 20.784608,37 3.464102,-2 3.464102,2 v 4 l -3.464102,2 -3.464102,-2 z"
         style="fill:#000000;stroke:#808080;stroke-width:0.26458332px;stroke-linecap:butt;stroke-linejoin:miter;stroke-opacity:1" />
      <path
         sodipodi:nodetypes="ccccccc"
         inkscape:connector-curvature="0"
         id="path4524-3-06"
         d="m 27.712812,37 3.464101,-2 3.464102,2 v 4 l -3.464102,2 -3.464101,-2 z"
         style="fill:#000000;stroke:#808080;stroke-width:0.26458332px;stroke-linecap:butt;stroke-linejoin:miter;stroke-opacity:1" />
      <path
         sodipodi:nodetypes="ccccccc"
         inkscape:connector-curvature="0"
         id="path4524-6-15"
         d="m 17.320507,43 3.464101,-2 3.464103,2 v 4 L 20.784608,48.999999 17.320507,47 Z"
         style="fill:#000000;stroke:#808080;stroke-width:0.26458332px;stroke-linecap:butt;stroke-linejoin:miter;stroke-opacity:1" />
      <path
         sodipodi:nodetypes="ccccccc"
         inkscape:connector-curvature="0"
         id="path4524-3-7-5"
         d="m 24.248711,43 3.464101,-2 3.464102,2 v 4 L 27.712812,48.999999 24.248711,47 Z"
         style="fill:#000000;stroke:#808080;stroke-width:0.26458332px;stroke-linecap:butt;stroke-linejoin:miter;stroke-opacity:1" />
      <path
         sodipodi:nodetypes="ccccccc"
         inkscape:connector-curvature="0"
         id="path4524-5-4"
         d="M 34.641015,37.000002 38.105117,35 l 3.464102,2.000002 v 4.000002 l -3.464102,2.000001 -3.464102,-2.000001 z"
         style="fill:#000000;stroke:#808080;stroke-width:0.26458332px;stroke-linecap:butt;stroke-linejoin:miter;stroke-opacity:1" />
      <path
         sodipodi:nodetypes="ccccccc"
         inkscape:connector-curvature="0"
         id="path4524-3-3-7"
         d="M 41.569219,37.000002 45.033321,35 l 3.464102,2.000002 v 4.000002 l -3.464102,2.000001 -3.464102,-2.000001 z"
         style="fill:#000000;stroke:#808080;stroke-width:0.26458332px;stroke-linecap:butt;stroke-linejoin:miter;stroke-opacity:1" />
      <path
         sodipodi:nodetypes="ccccccc"
         inkscape:connector-curvature="0"
         id="path4524-6-5-65"
         d="m 31.176912,43.000005 3.464103,-2.000001 3.464103,2.000001 v 3.999999 l -3.464103,2.000001 -3.464103,-2.000001 z"
         style="fill:#000000;stroke:#808080;stroke-width:0.26458332px;stroke-linecap:butt;stroke-linejoin:miter;stroke-opacity:1" />
      <path
         sodipodi:nodetypes="ccccccc"
         inkscape:connector-curvature="0"
         id="path4524-3-7-6-6"
         d="m 38.105118,43.000005 3.464101,-2.000001 3.464102,2.000001 v 3.999999 l -3.464102,2.000001 -3.464101,-2.000001 z"
         style="fill:#000000;stroke:#808080;stroke-width:0.26458332px;stroke-linecap:butt;stroke-linejoin:miter;stroke-opacity:1" />
      <path
         sodipodi:nodetypes="ccccccc"
         inkscape:connector-curvature="0"
         id="path4524-2-9"
         d="m 48.497423,37 3.464099,-2 3.464103,2 v 4 l -3.464103,2 -3.464099,-2 z"
         style="fill:#000000;stroke:#808080;stroke-width:0.26458332px;stroke-linecap:butt;stroke-linejoin:miter;stroke-opacity:1" />
      <path
         sodipodi:nodetypes="ccccccc"
         inkscape:connector-curvature="0"
         id="path4524-3-9-3"
         d="m 55.425625,37 3.464102,-2 3.464102,2 v 4 l -3.464102,2 -3.464102,-2 z"
         style="fill:#000000;stroke:#808080;stroke-width:0.26458332px;stroke-linecap:butt;stroke-linejoin:miter;stroke-opacity:1" />
      <path
         sodipodi:nodetypes="ccccccc"
         inkscape:connector-curvature="0"
         id="path4524-6-1-7"
         d="m 45.033321,43 3.464102,-2 3.464102,2 v 3.999998 l -3.464102,2 -3.464102,-2 z"
         style="fill:#000000;stroke:#808080;stroke-width:0.26458332px;stroke-linecap:butt;stroke-linejoin:miter;stroke-opacity:1" />
      <path
         sodipodi:nodetypes="ccccccc"
         inkscape:connector-curvature="0"
         id="path4524-3-7-2-4"
         d="m 51.961525,43 3.4641,-2 3.464102,2 v 3.999998 l -3.464102,2 -3.4641,-2 z"
         style="fill:#000000;stroke:#808080;stroke-width:0.26458332px;stroke-linecap:butt;stroke-linejoin:miter;stroke-opacity:1" />
      <path
         sodipodi:nodetypes="ccccccc"
         inkscape:connector-curvature="0"
         id="path4524-7-5"
         d="M 20.784608,48.999999 24.24871,47 l 3.464102,1.999999 v 4 l -3.464102,2 -3.464102,-2 z"
         style="fill:#000000;stroke:#808080;stroke-width:0.26458332px;stroke-linecap:butt;stroke-linejoin:miter;stroke-opacity:1" />
      <path
         sodipodi:nodetypes="ccccccc"
         inkscape:connector-curvature="0"
         id="path4524-3-0-2"
         d="M 27.712812,48.999999 31.176913,47 l 3.464102,1.999999 v 4 l -3.464102,2 -3.464101,-2 z"
         style="fill:#000000;stroke:#808080;stroke-width:0.26458332px;stroke-linecap:butt;stroke-linejoin:miter;stroke-opacity:1" />
      <path
         sodipodi:nodetypes="ccccccc"
         inkscape:connector-curvature="0"
         id="path4524-6-9-5"
         d="m 17.320507,54.999999 3.464101,-2 3.464103,2 v 4 l -3.464103,2 -3.464101,-2 z"
         style="fill:#000000;stroke:#808080;stroke-width:0.26458332px;stroke-linecap:butt;stroke-linejoin:miter;stroke-opacity:1" />
      <path
         sodipodi:nodetypes="ccccccc"
         inkscape:connector-curvature="0"
         id="path4524-3-7-3-4"
         d="m 24.248711,54.999999 3.464101,-2 3.464102,2 v 4 l -3.464102,2 -3.464101,-2 z"
         style="fill:#000000;stroke:#808080;stroke-width:0.26458332px;stroke-linecap:butt;stroke-linejoin:miter;stroke-opacity:1" />
      <path
         sodipodi:nodetypes="ccccccc"
         inkscape:connector-curvature="0"
         id="path4524-60-7"
         d="M 34.641015,49.000001 38.105116,47 41.569218,49.000001 V 53 l -3.464102,2 -3.464101,-2 z"
         style="fill:#000000;stroke:#808080;stroke-width:0.26458332px;stroke-linecap:butt;stroke-linejoin:miter;stroke-opacity:1" />
      <path
         sodipodi:nodetypes="ccccccc"
         inkscape:connector-curvature="0"
         id="path4524-3-6-4"
         d="M 41.569218,49.000001 45.033318,47 48.49742,49.000001 V 53 l -3.464102,2 -3.4641,-2 z"
         style="fill:#000000;stroke:#808080;stroke-width:0.26458332px;stroke-linecap:butt;stroke-linejoin:miter;stroke-opacity:1" />
      <path
         sodipodi:nodetypes="ccccccc"
         inkscape:connector-curvature="0"
         id="path4524-6-2-4"
         d="m 31.176914,55 3.464101,-2 3.464102,2 v 4 l -3.464102,2 -3.464101,-2 z"
         style="fill:#000000;stroke:#808080;stroke-width:0.26458332px;stroke-linecap:butt;stroke-linejoin:miter;stroke-opacity:1" />
      <path
         sodipodi:nodetypes="ccccccc"
         inkscape:connector-curvature="0"
         id="path4524-3-7-61-30"
         d="m 38.105117,55 3.464101,-2 3.464103,2 v 4 l -3.464103,2 -3.464101,-2 z"
         style="fill:#000000;stroke:#808080;stroke-width:0.26458332px;stroke-linecap:butt;stroke-linejoin:miter;stroke-opacity:1" />
      <path
         sodipodi:nodetypes="ccccccc"
         inkscape:connector-curvature="0"
         id="path4524-8-7"
         d="M 48.49742,49.000001 51.961522,47 55.425625,49.000001 V 53 l -3.464103,2 -3.464102,-2 z"
         style="fill:#000000;stroke:#808080;stroke-width:0.26458332px;stroke-linecap:butt;stroke-linejoin:miter;stroke-opacity:1" />
      <path
         sodipodi:nodetypes="ccccccc"
         inkscape:connector-curvature="0"
         id="path4524-3-79-8"
         d="M 55.425625,49.000001 58.889724,47 62.353827,49.000001 V 53 l -3.464103,2 -3.464099,-2 z"
         style="fill:#000000;stroke:#808080;stroke-width:0.26458332px;stroke-linecap:butt;stroke-linejoin:miter;stroke-opacity:1" />
      <path
         sodipodi:nodetypes="ccccccc"
         inkscape:connector-curvature="0"
         id="path4524-6-20-6"
         d="m 45.033321,55 3.464099,-2 3.464102,2 v 4 l -3.464102,2 -3.464099,-2 z"
         style="fill:#000000;stroke:#808080;stroke-width:0.26458332px;stroke-linecap:butt;stroke-linejoin:miter;stroke-opacity:1" />
      <path
         sodipodi:nodetypes="ccccccc"
         inkscape:connector-curvature="0"
         id="path4524-3-7-23-8"
         d="m 51.961522,55 3.464103,-2 3.464102,2 v 4 l -3.464102,2 -3.464103,-2 z"
         style="fill:#000000;stroke:#808080;stroke-width:0.26458332px;stroke-linecap:butt;stroke-linejoin:miter;stroke-opacity:1" />
      <path
         sodipodi:nodetypes="ccccccc"
         inkscape:connector-curvature="0"
         id="path4524-84"
         d="m 62.353831,37 3.464101,-2 3.464102,2 v 4 l -3.464102,2 -3.464101,-2 z"
         style="fill:#000000;stroke:#808080;stroke-width:0.26458332px;stroke-linecap:butt;stroke-linejoin:miter;stroke-opacity:1" />
      <path
         sodipodi:nodetypes="ccccccc"
         inkscape:connector-curvature="0"
         id="path4524-3-31"
         d="m 69.282034,37 3.464101,-2 3.464102,2 v 4 l -3.464102,2 -3.464101,-2 z"
         style="fill:#000000;stroke:#808080;stroke-width:0.26458332px;stroke-linecap:butt;stroke-linejoin:miter;stroke-opacity:1" />
      <path
         sodipodi:nodetypes="ccccccc"
         inkscape:connector-curvature="0"
         id="path4524-6-4"
         d="m 58.88973,43 3.464101,-2 3.464102,2 v 4 L 62.353831,48.999999 58.88973,47 Z"
         style="fill:#000000;stroke:#808080;stroke-width:0.26458332px;stroke-linecap:butt;stroke-linejoin:miter;stroke-opacity:1" />
      <path
         sodipodi:nodetypes="ccccccc"
         inkscape:connector-curvature="0"
         id="path4524-3-7-92"
         d="m 65.817933,43 3.464101,-2 3.464102,2 v 4 L 69.282034,48.999999 65.817933,47 Z"
         style="fill:#000000;stroke:#808080;stroke-width:0.26458332px;stroke-linecap:butt;stroke-linejoin:miter;stroke-opacity:1" />
      <path
         sodipodi:nodetypes="ccccccc"
         inkscape:connector-curvature="0"
         id="path4524-5-0"
         d="M 76.210237,37.000002 79.674339,35 l 3.464102,2.000002 v 4.000002 l -3.464102,2.000001 -3.464102,-2.000001 z"
         style="fill:#000000;stroke:#808080;stroke-width:0.26458332px;stroke-linecap:butt;stroke-linejoin:miter;stroke-opacity:1" />
      <path
         sodipodi:nodetypes="ccccccc"
         inkscape:connector-curvature="0"
         id="path4524-3-3-6"
         d="M 83.138441,37.000002 86.602543,35 l 3.464102,2.000002 v 4.000002 l -3.464102,2.000001 -3.464102,-2.000001 z"
         style="fill:#000000;stroke:#808080;stroke-width:0.26458332px;stroke-linecap:butt;stroke-linejoin:miter;stroke-opacity:1" />
      <path
         sodipodi:nodetypes="ccccccc"
         inkscape:connector-curvature="0"
         id="path4524-6-5-8"
         d="m 72.746134,43.000005 3.464103,-2.000001 3.464103,2.000001 v 3.999999 l -3.464103,2.000001 -3.464103,-2.000001 z"
         style="fill:#000000;stroke:#808080;stroke-width:0.26458332px;stroke-linecap:butt;stroke-linejoin:miter;stroke-opacity:1" />
      <path
         sodipodi:nodetypes="ccccccc"
         inkscape:connector-curvature="0"
         id="path4524-3-7-6-9"
         d="m 79.67434,43.000005 3.464101,-2.000001 3.464102,2.000001 v 3.999999 l -3.464102,2.000001 -3.464101,-2.000001 z"
         style="fill:#000000;stroke:#808080;stroke-width:0.26458332px;stroke-linecap:butt;stroke-linejoin:miter;stroke-opacity:1" />
      <path
         sodipodi:nodetypes="ccccccc"
         inkscape:connector-curvature="0"
         id="path4524-2-26"
         d="m 90.066645,37 3.464097,-2 3.46411,2 v 4 l -3.46411,2 -3.464097,-2 z"
         style="fill:#000000;stroke:#808080;stroke-width:0.26458332px;stroke-linecap:butt;stroke-linejoin:miter;stroke-opacity:1" />
      <path
         sodipodi:nodetypes="ccccccc"
         inkscape:connector-curvature="0"
         id="path4524-3-9-6"
         d="m 96.994852,37 3.464098,-2 3.4641,2 v 4 l -3.4641,2 -3.464098,-2 z"
         style="fill:#000000;stroke:#808080;stroke-width:0.26458332px;stroke-linecap:butt;stroke-linejoin:miter;stroke-opacity:1" />
      <path
         sodipodi:nodetypes="ccccccc"
         inkscape:connector-curvature="0"
         id="path4524-6-1-4"
         d="m 86.602543,43 3.464102,-2 3.464107,2 v 3.999998 l -3.464107,2 -3.464102,-2 z"
         style="fill:#000000;stroke:#808080;stroke-width:0.26458332px;stroke-linecap:butt;stroke-linejoin:miter;stroke-opacity:1" />
      <path
         sodipodi:nodetypes="ccccccc"
         inkscape:connector-curvature="0"
         id="path4524-3-7-2-9"
         d="m 93.530752,43 3.4641,-2 3.464098,2 v 3.999998 l -3.464098,2 -3.4641,-2 z"
         style="fill:#000000;stroke:#808080;stroke-width:0.26458332px;stroke-linecap:butt;stroke-linejoin:miter;stroke-opacity:1" />
      <path
         sodipodi:nodetypes="ccccccc"
         inkscape:connector-curvature="0"
         id="path4524-7-50"
         d="M 62.353831,48.999999 65.817932,47 l 3.464102,1.999999 v 4 l -3.464102,2 -3.464101,-2 z"
         style="fill:#000000;stroke:#808080;stroke-width:0.26458332px;stroke-linecap:butt;stroke-linejoin:miter;stroke-opacity:1" />
      <path
         sodipodi:nodetypes="ccccccc"
         inkscape:connector-curvature="0"
         id="path4524-3-0-48"
         d="M 69.282034,48.999999 72.746135,47 l 3.464102,1.999999 v 4 l -3.464102,2 -3.464101,-2 z"
         style="fill:#000000;stroke:#808080;stroke-width:0.26458332px;stroke-linecap:butt;stroke-linejoin:miter;stroke-opacity:1" />
      <path
         sodipodi:nodetypes="ccccccc"
         inkscape:connector-curvature="0"
         id="path4524-6-9-71"
         d="m 58.88973,54.999999 3.464101,-2 3.464102,2 v 4 l -3.464102,2 -3.464101,-2 z"
         style="fill:#000000;stroke:#808080;stroke-width:0.26458332px;stroke-linecap:butt;stroke-linejoin:miter;stroke-opacity:1" />
      <path
         sodipodi:nodetypes="ccccccc"
         inkscape:connector-curvature="0"
         id="path4524-3-7-3-7"
         d="m 65.817933,54.999999 3.464101,-2 3.464102,2 v 4 l -3.464102,2 -3.464101,-2 z"
         style="fill:#000000;stroke:#808080;stroke-width:0.26458332px;stroke-linecap:butt;stroke-linejoin:miter;stroke-opacity:1" />
      <path
         sodipodi:nodetypes="ccccccc"
         inkscape:connector-curvature="0"
         id="path4524-60-2"
         d="M 76.210237,49.000001 79.674338,47 83.13844,49.000001 V 53 l -3.464102,2 -3.464101,-2 z"
         style="fill:#000000;stroke:#808080;stroke-width:0.26458332px;stroke-linecap:butt;stroke-linejoin:miter;stroke-opacity:1" />
      <path
         sodipodi:nodetypes="ccccccc"
         inkscape:connector-curvature="0"
         id="path4524-3-6-7"
         d="M 83.13844,49.000001 86.60254,47 90.066642,49.000001 V 53 l -3.464102,2 -3.4641,-2 z"
         style="fill:#000000;stroke:#808080;stroke-width:0.26458332px;stroke-linecap:butt;stroke-linejoin:miter;stroke-opacity:1" />
      <path
         sodipodi:nodetypes="ccccccc"
         inkscape:connector-curvature="0"
         id="path4524-6-2-2"
         d="m 72.746136,55 3.464101,-2 3.464102,2 v 4 l -3.464102,2 -3.464101,-2 z"
         style="fill:#000000;stroke:#808080;stroke-width:0.26458332px;stroke-linecap:butt;stroke-linejoin:miter;stroke-opacity:1" />
      <path
         sodipodi:nodetypes="ccccccc"
         inkscape:connector-curvature="0"
         id="path4524-3-7-61-2"
         d="m 79.674339,55 3.464101,-2 3.464103,2 v 4 l -3.464103,2 -3.464101,-2 z"
         style="fill:#000000;stroke:#808080;stroke-width:0.26458332px;stroke-linecap:butt;stroke-linejoin:miter;stroke-opacity:1" />
      <path
         sodipodi:nodetypes="ccccccc"
         inkscape:connector-curvature="0"
         id="path4524-8-61"
         d="M 90.066642,49.000001 93.530742,47 l 3.46411,2.000001 V 53 l -3.46411,2 -3.4641,-2 z"
         style="fill:#000000;stroke:#808080;stroke-width:0.26458332px;stroke-linecap:butt;stroke-linejoin:miter;stroke-opacity:1" />
      <path
         sodipodi:nodetypes="ccccccc"
         inkscape:connector-curvature="0"
         id="path4524-3-79-0"
         d="M 96.994852,49.000001 100.45894,47 l 3.46411,2.000001 V 53 l -3.46411,2 -3.464088,-2 z"
         style="fill:#000000;stroke:#808080;stroke-width:0.26458332px;stroke-linecap:butt;stroke-linejoin:miter;stroke-opacity:1" />
      <path
         sodipodi:nodetypes="ccccccc"
         inkscape:connector-curvature="0"
         id="path4524-6-20-61"
         d="m 86.602543,55 3.464099,-2 3.4641,2 v 4 l -3.4641,2 -3.464099,-2 z"
         style="fill:#000000;stroke:#808080;stroke-width:0.26458332px;stroke-linecap:butt;stroke-linejoin:miter;stroke-opacity:1" />
      <path
         sodipodi:nodetypes="ccccccc"
         inkscape:connector-curvature="0"
         id="path4524-3-7-23-5"
         d="m 93.530742,55 3.46411,-2 3.464098,2 v 4 l -3.464098,2 -3.46411,-2 z"
         style="fill:#000000;stroke:#808080;stroke-width:0.26458332px;stroke-linecap:butt;stroke-linejoin:miter;stroke-opacity:1" />
      <path
         inkscape:connector-curvature="0"
         id="path4925"
         d=""
         style="fill:#000000;stroke-width:0.08257788;stroke:#808080" />
      <path
         inkscape:connector-curvature="0"
         id="path4923"
         d=""
         style="fill:#000000;stroke-width:0.08257788;stroke:#808080" />
      <path
         inkscape:connector-curvature="0"
         id="path4921"
         d=""
         style="fill:#000000;stroke-width:0.08257788;stroke:#808080" />
      <path
         inkscape:connector-curvature="0"
         id="path4919"
         d=""
         style="fill:#000000;stroke-width:0.35277781;stroke:#808080" />
    </g>
    <path
       style="fill:#5fbcd3;stroke-width:0.01208616"
       d="m 63.340194,38.961351 c 0.0083,-0.0068 0.125244,-0.01632 0.259853,-0.02114 l 0.244748,-0.0088 v -0.13179 c 0,-0.151641 6.8e-5,-0.151746 0.101599,-0.134256 l 0.06567,0.01131 0.0077,-0.04332 c 0.0131,-0.0741 0.01928,-0.08559 0.04648,-0.08658 0.01452,-5.19e-4 0.01959,-0.0037 0.01125,-0.007 -0.02083,-0.0084 -0.01897,-0.03628 0.0031,-0.04475 0.01038,-0.0037 0.01811,-0.022 0.01811,-0.04203 v -0.0351 l 0.119305,-0.0085 0.1193,-0.0085 0.0207,-0.165325 c 0.01137,-0.09093 0.02336,-0.174842 0.02651,-0.18648 0.0049,-0.01823 0.02157,-0.02114 0.119837,-0.02114 0.0627,0 0.113947,-0.0043 0.113885,-0.0091 -6.8e-5,-0.0049 -0.05012,-0.01063 -0.111271,-0.01255 C 64.44585,38.0044 64.394543,38.0014 64.392992,38 c -0.0012,-0.0019 0.01465,-0.114188 0.03597,-0.250304 l 0.03881,-0.247486 0.08052,0.0019 c 0.05915,0.0012 0.08224,-0.0025 0.08701,-0.01514 0.0092,-0.02398 0.02967,-0.02163 0.174651,0.02027 0.08569,0.02472 0.144874,0.04969 0.177055,0.07473 0.02658,0.02064 0.177722,0.169515 0.335847,0.330779 0.158124,0.16127 0.321285,0.31882 0.362582,0.350111 0.09553,0.07239 0.216406,0.128348 0.347027,0.160646 0.185337,0.04586 1.076569,0.192592 1.214657,0.200015 0.260761,0.01403 0.339456,0.02138 0.41697,0.03887 0.288629,0.06527 0.550447,0.1897 0.599748,0.285032 0.04258,0.08237 -0.02466,0.160053 -0.217827,0.251578 -0.125875,0.05964 -0.328789,0.122365 -0.466524,0.144212 -0.0432,0.0069 -0.154701,0.01557 -0.247764,0.01947 -0.177136,0.0073 -0.208142,0.01174 -0.835826,0.119868 -0.458576,0.07899 -0.544316,0.09983 -0.680988,0.165442 -0.09923,0.04765 -0.115511,0.062 -0.477414,0.421 l -0.374678,0.371668 -0.102724,0.03078 c -0.205317,0.0615 -0.229668,0.06455 -0.2296,0.02855 2.5e-5,-0.01014 -0.02441,-0.01323 -0.08211,-0.01051 l -0.08213,0.0037 -0.03362,-0.221467 c -0.01848,-0.121802 -0.03659,-0.236423 -0.04017,-0.254705 l -0.0065,-0.03325 0.11925,-0.0025 0.11925,-0.0025 -0.110684,-0.0037 c -0.068,-0.0025 -0.115103,-0.0096 -0.122148,-0.01866 -0.0063,-0.0081 -0.0212,-0.09732 -0.03307,-0.19834 l -0.02157,-0.183668 -0.03418,0.0069 c -0.01879,0.0037 -0.04388,0.0031 -0.05568,-0.0019 -0.0118,-0.0049 -0.05006,-0.0079 -0.08498,-0.0066 -0.06342,0.0025 -0.06345,0.0025 -0.06345,-0.03517 0,-0.02219 -0.0074,-0.04036 -0.01811,-0.0445 -0.022,-0.0085 -0.02386,-0.03628 -0.0031,-0.04468 0.0083,-0.0031 0.0031,-0.0066 -0.01112,-0.007 -0.01959,-6.18e-4 -0.02824,-0.01088 -0.03411,-0.04023 -0.01737,-0.08631 -0.01181,-0.08234 -0.103608,-0.07381 l -0.08378,0.0078 v -0.145362 -0.145362 l -0.07554,-0.0072 c -0.04153,-0.0037 -0.151679,-0.01069 -0.244742,-0.01502 -0.155195,-0.0072 -0.199422,-0.01626 -0.199422,-0.04104 0,-0.0049 0.0068,-0.01465 0.01514,-0.02145 z"
       id="path4989"
       inkscape:connector-curvature="0" />
  </g>
</svg>
